<svg width="18" height="18" viewBox="0 0 18 18" fill="none" xmlns="http://www.w3.org/2000/svg">
<path d="M14.8917 3.10829L13.7167 4.28329C14.9167 5.49163 15.6667 7.15829 15.6667 8.99996C15.6667 12.6833 12.6834 15.6666 9.00002 15.6666C5.31669 15.6666 2.33335 12.6833 2.33335 8.99996C2.33335 5.59996 4.87502 2.79996 8.16669 2.39163V4.07496C5.80002 4.47496 4.00002 6.52496 4.00002 8.99996C4.00002 11.7583 6.24169 14 9.00002 14C11.7584 14 14 11.7583 14 8.99996C14 7.61663 13.4417 6.36663 12.5334 5.46663L11.3584 6.64163C11.9584 7.24996 12.3334 8.08329 12.3334 8.99996C12.3334 10.8416 10.8417 12.3333 9.00002 12.3333C7.15835 12.3333 5.66669 10.8416 5.66669 8.99996C5.66669 7.44996 6.73335 6.15829 8.16669 5.78329V7.56663C7.66669 7.85829 7.33335 8.38329 7.33335 8.99996C7.33335 9.91663 8.08335 10.6666 9.00002 10.6666C9.91669 10.6666 10.6667 9.91663 10.6667 8.99996C10.6667 8.38329 10.3334 7.84996 9.83335 7.56663V0.666626H9.00002C4.40002 0.666626 0.666687 4.39996 0.666687 8.99996C0.666687 13.6 4.40002 17.3333 9.00002 17.3333C13.6 17.3333 17.3334 13.6 17.3334 8.99996C17.3334 6.69996 16.4 4.61663 14.8917 3.10829Z" fill="white"/>
</svg>
